HIERARCHY
ROOT hip
{
	OFFSET 0.000000 0.000000 0.000000 
	CHANNELS 6 Xposition Yposition Zposition Xrotation Zrotation Yrotation
	JOINT abdomen
	{
		OFFSET 0.000000 3.402643 0.000000 
		CHANNELS 3 Xrotation Zrotation Yrotation
		JOINT chest
		{
			OFFSET 0.000000 8.438565 -0.680529 
			CHANNELS 3 Xrotation Zrotation Yrotation
			JOINT neck
			{
				OFFSET 0.000000 10.207942 -0.272212 
				CHANNELS 3 Xrotation Zrotation Yrotation
				JOINT head
				{
					OFFSET 0.000000 3.130431 0.000000 
					CHANNELS 3 Xrotation Zrotation Yrotation
					End Site
					{
						OFFSET 0.000000 3.130435 0.000000 
					}
				}
			}
			JOINT lCollar
			{
				OFFSET 3.470700 6.669187 -0.816635 
				CHANNELS 3 Yrotation Zrotation Xrotation
				JOINT lShldr
				{
					OFFSET 3.198488 0.000000 0.000000 
					CHANNELS 3 Zrotation Yrotation Xrotation
					JOINT lForeArm
					{
						OFFSET 10.139888 0.000000 0.000000 
						CHANNELS 3 Yrotation Zrotation Xrotation
						JOINT lHand
						{
							OFFSET 8.370511 0.000000 0.000000 
							CHANNELS 3 Zrotation Yrotation Xrotation
							End Site
							{
								OFFSET 4.083176 0.000000 0.000000 
							}
						}
					}
				}
			}
			JOINT rCollar
			{
				OFFSET -3.470700 6.669187 -0.816635 
				CHANNELS 3 Yrotation Zrotation Xrotation
				JOINT rShldr
				{
					OFFSET -3.198488 0.000000 0.000000 
					CHANNELS 3 Zrotation Yrotation Xrotation
					JOINT rForeArm
					{
						OFFSET -10.139888 0.000000 0.000000 
						CHANNELS 3 Yrotation Zrotation Xrotation
						JOINT rHand
						{
							OFFSET -8.370511 0.000000 0.000000 
							CHANNELS 3 Zrotation Yrotation Xrotation
							End Site
							{
								OFFSET -4.083176 0.000000 0.000000 
							}
						}
					}
				}
			}
		}
	}
	JOINT lThigh
	{
		OFFSET 5.308129 -1.633274 1.361059 
		CHANNELS 3 Xrotation Zrotation Yrotation
		JOINT lShin
		{
			OFFSET -2.041588 -20.007561 0.000000 
			CHANNELS 3 Xrotation Zrotation Yrotation
			JOINT lFoot
			{
				OFFSET 0.000000 -19.190928 -1.224953 
				CHANNELS 3 Xrotation Yrotation Zrotation
				End Site
				{
					OFFSET 0.000000 -2.449906 4.627600 
				}
			}
		}
	}
	JOINT rThigh
	{
		OFFSET -5.308129 -1.633274 1.361059 
		CHANNELS 3 Xrotation Zrotation Yrotation
		JOINT rShin
		{
			OFFSET 2.041588 -20.007561 0.000000 
			CHANNELS 3 Xrotation Zrotation Yrotation
			JOINT rFoot
			{
				OFFSET 0.000000 -19.190928 -1.224953 
				CHANNELS 3 Xrotation Yrotation Zrotation
				End Site
				{
					OFFSET 0.000000 -2.449906 4.627600 
				}
			}
		}
	}
}
MOTION
Frames: 18
Frame Time: 0.033333
-2.165369 51.567413 1.827221 0.314217 0.380774 -1.210911 0.000000 0.000000 0.000000 -3.788822 0.087890 0.156265 5.199342 -2.428113 -3.088956 7.103711 5.202187 -5.324217 -0.850634 1.772867 -2.842809 -23.635592 -2.983637 -17.845900 -9.549984 5.516187 17.654415 -4.667928 -5.154207 -3.026690 -0.462617 -1.815045 -2.872361 20.998137 4.337809 -24.679003 9.753242 2.071936 15.269296 -3.691098 4.519540 -3.645325 7.536277 9.704249 7.273356 -2.079507 -3.509722 0.225266 -4.511425 0.266595 -7.477209 5.320729 -7.792272 -6.837241 0.214686 3.347952 -2.223257 -4.786692 -0.224613 4.796072 
-2.427283 51.561886 1.748832 0.474351 0.527160 -1.513698 0.000000 0.000000 0.000000 -3.681537 0.019531 0.302738 5.123636 -2.728301 -3.822857 6.550686 5.774582 -6.399593 -0.928539 0.005713 -2.763309 -28.266117 0.243275 -16.355690 -17.974844 5.396620 17.829767 -6.174946 -2.734122 -3.080482 -0.267806 0.325792 -2.763706 24.787931 2.015937 -22.489056 18.136654 2.142322 14.893914 -3.131621 2.567138 -3.578765 7.340116 9.781939 7.161501 -2.010963 -3.343540 0.273279 -4.422570 0.306368 -7.850359 4.928677 -7.672297 -6.665914 0.409820 3.386449 -2.015341 -4.835970 -0.199165 4.446829 
-2.726210 51.572449 1.715413 0.409363 0.693061 -1.679801 0.000000 0.000000 0.000000 -3.466897 -0.019531 0.292969 5.087886 -3.192266 -4.724144 6.121508 6.524441 -7.617813 -1.097544 -0.928136 -2.577965 -33.781082 2.262425 -14.026155 -22.336893 5.347021 19.759842 -7.601909 -1.548013 -3.093407 -0.155704 1.991317 -2.550667 28.966669 1.235293 -21.258160 22.588469 1.995766 15.984724 -2.268856 0.780412 -3.529265 7.350270 9.938243 7.251813 -1.952941 -3.266884 0.208068 -4.078481 0.267256 -8.239491 4.870186 -7.515912 -6.609201 0.556006 3.481487 -1.664922 -4.955275 -0.208761 3.966531 
-3.085386 51.566982 1.659486 0.355995 0.546667 -1.582052 0.000000 0.000000 0.000000 -3.222686 0.058594 -0.029297 4.915592 -3.400505 -5.801637 6.157971 7.327861 -8.694076 -1.554502 -1.675866 -2.353681 -39.008163 4.374606 -11.132326 -25.758875 4.795770 19.983671 -9.056298 -0.363320 -3.146147 -0.744456 4.114991 -2.290941 32.100624 2.370051 -18.108486 23.692663 2.564248 15.844601 -2.379964 0.039158 -3.530041 7.252200 10.416830 7.432316 -1.845265 -2.992794 0.113459 -4.212003 0.293331 -8.824627 4.714971 -6.980540 -6.353728 0.867935 3.519247 -2.190490 -5.103371 -0.174467 3.526231 
-3.467874 51.514542 1.615888 0.251322 0.517431 -1.367220 0.000000 0.000000 0.000000 -2.949498 0.058593 -0.273437 4.817315 -3.394126 -6.779935 5.932387 7.274237 -9.441268 -2.137852 -2.061397 -2.109054 -44.444386 6.349317 -7.664061 -28.088707 4.238068 21.670843 -10.295335 0.844202 -3.229297 -0.713917 5.477975 -2.040415 35.934277 2.024826 -14.917032 25.388519 3.056724 15.387142 -1.595265 -1.262654 -3.510482 7.154253 10.786319 7.458899 -1.631827 -2.643729 -0.487405 -4.310716 0.312119 -9.465224 3.530754 -6.683098 -6.076869 3.288678 3.561051 -2.296026 -6.303280 -0.177849 3.185222 
-3.906096 51.501423 1.580367 0.417354 0.556504 -1.269566 0.000000 0.000000 0.000000 -2.822573 0.048827 -0.361328 4.686246 -3.601367 -7.554146 5.500887 7.534419 -10.294010 -2.382841 -3.003777 -2.022669 -49.401283 7.375845 -6.278535 -28.611820 4.121847 23.759056 -13.669686 -1.926388 -2.787391 -1.038636 6.385495 -1.906296 39.984898 1.924245 -11.120596 26.452251 3.696387 15.721189 -0.902624 -2.501589 -3.502922 6.498543 11.223222 7.555817 -0.899070 -2.475799 -0.497433 -4.100078 0.319772 -10.058937 2.762972 -6.201123 -5.803713 4.422339 3.640193 -2.615644 -6.920137 -0.175557 2.614735 
-4.379653 51.455349 1.536849 0.332559 0.488194 -1.083945 0.000000 0.000000 0.000000 -2.529737 0.039060 -0.644531 4.820544 -3.740112 -8.269928 4.767632 8.283692 -11.033397 -2.709254 -2.672983 -1.738151 -54.612030 9.423352 -3.018447 -29.715069 3.113886 23.294102 -12.157583 -0.522107 -3.024418 -0.835786 6.901947 -1.662856 44.876732 1.795593 -9.602722 26.888206 3.771650 18.707989 0.059526 -2.735836 -3.495373 5.937365 11.865184 7.684586 0.474351 -2.119131 -1.434109 -4.248294 0.363650 -10.828117 1.980098 -5.677789 -5.584092 6.086666 3.763711 -2.806010 -7.809398 -0.153899 1.998642 
-4.861336 51.387783 1.491553 0.341003 0.595610 -1.015672 0.000000 0.000000 0.000000 -2.284271 -0.068354 -0.742199 4.955069 -3.820492 -8.926640 4.317240 8.609032 -11.704656 -2.437777 -2.788159 -1.513879 -59.095200 11.046088 -1.638997 -30.467022 2.785774 24.049702 -13.167648 1.772786 -3.280267 -1.025484 7.527444 -1.418172 47.873234 1.192789 -4.212358 28.155630 5.189648 17.679691 -0.086386 -2.744771 -3.498126 5.455904 12.201831 7.458968 1.291710 -1.565645 -2.070243 -3.741024 0.361231 -11.678581 0.956084 -5.368978 -5.423021 8.216844 3.882466 -2.471882 -9.020211 -0.126467 1.361467 
-5.287504 51.333046 1.513289 -0.044901 1.064339 -0.839880 0.000000 0.000000 0.000000 -1.831980 -0.283175 -0.800820 5.386072 -4.170516 -9.517954 3.918624 8.853950 -12.414788 -2.491297 -3.516315 -1.124095 -62.736061 13.660301 -0.786373 -32.499241 2.490028 23.248945 -12.423870 3.005491 -3.445750 -0.727279 7.739165 -1.055030 52.702465 0.119684 -4.045211 29.818748 4.869930 19.661974 0.636218 -3.678972 -3.520581 5.280252 11.880627 6.731265 1.816651 -0.767680 -1.454745 -2.517104 0.250702 -12.615398 0.486857 -5.615965 -5.824765 10.220210 4.205822 -1.786679 -10.202298 -0.082821 0.684144 
-5.926910 51.284481 1.523826 -0.354639 0.859370 -0.205055 0.000000 0.000000 0.000000 -1.313033 -0.312455 -0.976601 5.589351 -4.142535 -10.212972 4.175296 8.960833 -12.913512 -2.456892 -3.146811 -0.634842 -65.614525 15.106540 1.350863 -32.237026 1.340658 21.021992 -14.667746 2.454604 -3.362968 -1.089287 8.594775 -0.553763 55.653076 -0.528797 -1.223650 30.938650 5.589378 19.239561 0.240868 -4.084724 -3.514333 4.001509 12.895858 6.135831 4.970681 0.311249 -5.934012 -2.512563 0.274245 -13.688818 0.574996 -4.602046 -5.573687 10.740433 4.294957 -2.939464 -10.644527 -0.013244 0.015170 
-6.413703 51.246426 1.524465 -0.820149 0.957031 0.009927 0.000000 0.000000 0.000000 -0.659883 -0.302706 -0.791056 6.044155 -4.293244 -10.439837 4.166013 9.346981 -13.541901 -2.287293 -3.133207 -0.038973 -67.975792 17.114061 2.940744 -33.355186 0.692935 20.123610 -14.564878 3.833241 -3.559138 -1.290017 8.914484 0.069030 58.980930 -1.400553 -0.491181 31.966000 5.502542 19.756552 2.259085 -2.437738 -3.474546 -0.889138 13.050300 4.620326 13.860575 1.413646 -3.953952 -2.751160 0.322056 -14.689856 0.818781 -4.153464 -5.573269 11.368176 4.457803 -3.111308 -11.139913 0.038443 -0.620862 
-6.788446 51.156002 1.537628 -1.337009 1.201125 0.508110 0.000000 0.000000 0.000000 0.102397 -0.312464 -0.869181 6.498263 -4.222799 -10.674263 4.200023 9.283142 -13.716818 -2.244353 -2.730879 0.654907 -70.026009 18.970276 3.985198 -34.651840 0.253554 18.952814 -15.921915 4.795177 -3.719885 -1.282937 9.007186 0.770501 59.842525 -1.172807 5.380764 32.623119 7.129437 20.018616 0.164020 -4.881974 -3.526723 -4.492144 12.479199 2.758057 20.455143 2.768819 -1.409425 -1.763184 0.223537 -16.150755 0.545759 -4.223378 -5.980518 13.141593 4.792445 -3.076922 -12.139858 0.098344 -1.180051 
-7.139376 51.131607 1.536937 -1.844292 1.445161 0.830553 0.000000 0.000000 0.000000 0.999123 -0.253888 -0.683630 6.763391 -4.242401 -10.645050 4.675662 9.174206 -13.832410 -2.036424 -2.465677 1.484976 -71.718552 20.052933 4.370975 -34.874691 0.169586 19.160738 -15.995630 4.540210 -3.675494 -1.193760 8.896405 1.590834 60.924896 -0.868040 8.903275 32.863731 7.975011 21.027266 -0.487113 -5.372611 -3.533502 -7.880960 11.533170 1.939153 25.166063 3.364840 6.094265 1.755054 -0.251031 -17.704865 0.984482 -4.064934 -6.063041 13.563239 4.832563 -2.999816 -12.515508 0.177449 -1.576826 
-7.433110 51.118713 1.564672 -2.055490 1.767244 1.113956 0.000000 0.000000 0.000000 1.553297 -0.253906 -0.126995 7.125376 -4.104091 -10.212266 4.625537 9.073283 -13.986570 -1.971231 -2.051826 1.982734 -72.958527 21.042686 4.801772 -35.297901 0.080249 19.238585 -15.328804 5.007842 -3.736830 -0.687241 8.936132 2.095154 61.213638 -0.958505 11.595636 33.226364 8.743467 20.890354 0.105781 -5.355218 -3.529759 -10.690100 10.543497 2.090870 28.857065 2.821920 11.114488 1.583999 -0.187845 -14.500410 1.151181 -4.117268 -6.268133 13.868201 4.955858 -3.136647 -12.841106 0.208611 -1.911206 
-7.738968 51.188847 1.645323 -2.178105 1.845067 1.504699 0.000000 0.000000 0.000000 2.001637 -0.048827 0.371094 7.385534 -4.063640 -9.595160 4.802406 8.926912 -13.842476 -1.216147 -2.005639 2.393612 -73.177483 21.488810 5.185693 -35.582882 0.025660 19.809513 -14.179893 4.998869 -3.726024 0.238596 8.777959 2.469370 61.298679 -0.960511 14.463324 32.352196 9.770128 20.634501 -1.321298 -3.770787 -3.510305 -13.591763 9.744638 2.738206 31.754789 1.634421 13.236211 0.838188 -0.038333 -9.375238 2.272209 -3.599169 -6.049387 12.208549 4.916810 -3.696185 -12.284765 0.225241 -2.259466 
-7.973115 51.158279 1.778702 -2.095889 1.922819 1.856718 0.000000 0.000000 0.000000 2.227735 0.078116 0.859387 7.318684 -3.881237 -8.653184 5.655526 8.842853 -13.284447 -0.664962 -1.926777 2.608703 -73.267097 22.064226 5.269944 -35.832508 0.047487 19.712240 -12.537569 6.294799 -3.857837 0.671908 8.663380 2.676290 61.298470 -1.387698 16.132679 33.344837 9.709915 22.867533 -0.015419 -5.431256 -3.537851 -15.224355 9.052603 3.925407 31.587688 -0.386511 15.155538 0.334402 -0.022007 -5.777089 2.293698 -3.153893 -5.636075 12.365523 4.585130 -4.502856 -12.647353 0.248118 -2.260713 
-8.155334 51.152439 1.964306 -2.090646 1.970734 2.530823 0.000000 0.000000 0.000000 2.424450 0.126927 1.162128 7.353744 -3.405396 -7.846540 6.481600 8.421922 -12.489940 -0.659939 -0.902369 2.793194 -74.074783 22.766026 5.171237 -36.261612 0.226262 20.156145 -11.862669 5.712157 -3.774956 0.952756 8.964117 2.855676 60.771248 -1.977417 17.506884 33.880199 10.074394 23.696800 1.078947 -4.845666 -3.536553 -16.540150 8.006128 4.894434 30.154675 -2.178905 18.722815 0.813708 -0.015616 -2.099478 3.061680 -2.905928 -5.670123 11.746778 4.744477 -4.607015 -12.815038 0.270455 -2.555630 
-8.199216 51.085651 2.038280 -0.907173 2.555863 2.649511 0.000000 0.000000 0.000000 1.804486 -0.068325 1.806639 7.086179 -3.627446 -6.703176 7.054533 8.467933 -11.937788 0.067061 -1.473116 2.227333 -73.481407 23.445723 5.032114 -37.073948 0.400495 20.595451 -11.950808 5.903968 -3.794487 1.540429 8.436667 2.288824 60.403885 -2.821042 18.501966 34.198177 10.477408 22.741409 1.162169 -5.221942 -3.559427 -18.633921 6.675528 6.006031 27.667828 -4.811500 22.911898 0.870627 0.031505 3.198407 1.286081 -3.673077 -6.101475 13.530725 4.889536 -3.882730 -13.956717 0.309440 -2.673970 
